<?xml version="1.0" standalone="no"?>
<!DOCTYPE svg PUBLIC "-//W3C//DTD SVG 20010904//EN"
 "http://www.w3.org/TR/2001/REC-SVG-20010904/DTD/svg10.dtd">
<svg version="1.0" xmlns="http://www.w3.org/2000/svg"
 width="59.000000pt" height="69.000000pt" viewBox="0 0 59.000000 69.000000"
 preserveAspectRatio="xMidYMid meet">
<metadata>
Created by potrace 1.16, written by Peter Selinger 2001-2019
</metadata>
<g transform="translate(0.000000,69.000000) scale(0.015445,-0.051493)"
fill="#000000" stroke="none">
<path d="M975 1202 c-71 -25 -137 -65 -174 -108 l-33 -37 31 -28 c17 -15 31
-33 31 -39 0 -6 15 -17 33 -25 38 -16 82 -60 92 -93 5 -16 12 -22 23 -17 8 3
18 1 22 -5 5 -8 205 -69 228 -70 1 0 2 18 2 40 0 33 -7 47 -41 81 -49 49 -135
91 -202 97 -37 4 -47 8 -43 19 3 8 6 19 6 24 0 6 8 9 18 7 10 -1 62 23 115 55
89 53 96 59 85 77 -26 42 -109 51 -193 22z"/>
<path d="M385 1110 c-16 -6 -37 -16 -46 -23 -16 -12 -43 -57 -37 -61 13 -11
215 -57 229 -53 11 3 23 -2 28 -11 11 -19 9 -20 34 29 10 20 35 45 55 57 l37
21 -50 22 c-56 25 -199 35 -250 19z"/>
<path d="M673 1015 c-38 -16 -53 -42 -53 -90 0 -25 8 -43 25 -61 20 -20 23
-29 15 -45 -10 -17 -7 -19 26 -19 26 0 46 -8 71 -30 46 -41 94 -41 134 -1 54
55 28 143 -47 157 -27 5 -38 14 -49 41 -10 22 -26 39 -49 48 -41 18 -33 18
-73 0z"/>
<path d="M611 708 c-40 -93 -43 -88 52 -88 l84 0 9 65 10 65 -69 0 -68 0 -18
-42z"/>
<path d="M1720 699 c-31 -13 -40 -26 -40 -65 0 -39 17 -54 78 -69 28 -7 47
-18 47 -26 0 -18 -48 -24 -75 -9 -18 9 -25 8 -41 -6 -26 -23 -10 -40 48 -52
50 -11 103 -1 124 24 17 21 16 72 -3 90 -8 8 -36 20 -63 27 -57 14 -73 37 -25
37 17 0 40 -4 50 -10 14 -8 21 -5 34 14 15 23 14 25 -18 40 -38 18 -79 20
-116 5z"/>
<path d="M2151 701 c-7 -5 -31 -6 -52 -4 l-39 6 0 -117 0 -116 29 0 29 0 4 81
c3 66 7 83 23 95 10 8 22 14 25 14 3 0 15 -6 25 -14 16 -12 20 -29 23 -95 l4
-81 29 0 29 0 0 79 c0 71 2 82 22 95 28 20 33 20 52 0 12 -11 16 -36 16 -95
l0 -79 30 0 30 0 0 93 c-1 95 -7 114 -47 135 -29 16 -58 15 -94 -3 -27 -14
-32 -14 -51 0 -25 17 -65 20 -87 6z"/>
<path d="M2563 695 c-121 -52 -76 -228 59 -228 125 0 167 173 54 227 -41 19
-70 20 -113 1z"/>
<path d="M2891 701 c-7 -5 -31 -6 -52 -4 l-39 6 0 -117 0 -116 30 0 30 0 0 69
c0 38 3 77 6 85 10 26 41 38 64 26 18 -9 20 -21 20 -95 l0 -85 36 0 36 0 -4
96 c-4 91 -6 98 -32 120 -28 24 -70 31 -95 15z"/>
<path d="M3143 696 c-39 -18 -73 -70 -73 -111 0 -37 31 -89 62 -106 37 -20
112 -15 148 11 31 22 31 22 11 37 -18 12 -27 12 -56 2 -38 -14 -85 -4 -93 19
-3 9 19 12 87 12 l91 0 0 35 c0 78 -100 135 -177 101z"/>
<path d="M3520 703 c-31 -12 -50 -37 -50 -68 0 -40 17 -55 78 -70 29 -8 48
-18 50 -29 4 -19 -31 -22 -74 -6 -28 11 -54 -1 -54 -25 0 -28 102 -48 156 -31
22 7 44 44 44 75 0 26 -32 50 -85 64 -25 7 -46 17 -46 22 1 10 54 13 79 4 8
-2 21 6 29 19 15 21 14 23 -20 37 -36 15 -79 18 -107 8z"/>
<path d="M565 568 c-5 -16 -24 -100 -25 -110 0 -5 42 -8 94 -8 l93 0 7 46 c12
89 16 84 -79 84 -60 0 -87 -4 -90 -12z"/>
<path d="M525 363 c-3 -27 -8 -58 -11 -70 -4 -23 -3 -23 106 -23 l110 0 0 70
0 70 -99 0 -100 0 -6 -47z"/>
<path d="M916 225 c-25 -23 -27 -32 -24 -75 3 -49 2 -50 -24 -50 -25 0 -28 3
-28 35 0 24 -5 35 -15 35 -11 0 -15 -11 -15 -36 0 -64 -33 -24 -64 79 -5 15
-19 17 -119 17 l-114 0 -7 -31 c-3 -17 -6 -47 -6 -65 0 -19 -4 -34 -10 -34 -5
0 -10 20 -10 45 0 38 -3 45 -20 45 -17 0 -20 -7 -20 -45 0 -25 -4 -45 -10 -45
-5 0 -10 11 -10 25 0 18 -5 25 -20 25 -15 0 -20 -7 -20 -25 0 -14 -4 -25 -10
-25 -5 0 -10 20 -10 45 0 33 -4 45 -15 45 -11 0 -15 -12 -15 -45 l0 -45 -80 0
c-73 0 -80 -2 -80 -20 0 -20 7 -20 550 -20 543 0 550 0 550 20 0 19 -7 20
-105 20 l-105 0 11 26 c12 34 -4 88 -34 109 -34 24 -90 19 -121 -10z"/>
</g>
</svg>
